<svg width="96" height="96" viewBox="0 0 96 96" fill="none" xmlns="http://www.w3.org/2000/svg">
<rect width="96" height="96" rx="48" fill="url(#paint0_linear_449_3395)"/>
<g filter="url(#filter0_i_449_3395)">
<path d="M47.4822 67.7828C61.7347 67.7828 73.2887 58.1549 73.2887 46.2781C73.2887 34.4014 61.7347 24.7734 47.4822 24.7734C33.2297 24.7734 21.6758 34.4014 21.6758 46.2781C21.6758 51.9424 24.1577 56.9025 28.3671 60.6299C31.3448 63.2667 32.8938 67.5524 31.0058 71.0531C31.0058 71.0531 34.2812 71.945 36.5641 69.6657C38.5869 67.6461 41.2129 67.1858 44.052 67.5178C45.3609 67.6709 46.6336 67.7828 47.4822 67.7828Z" fill="url(#paint1_linear_449_3395)"/>
<path d="M47.4822 67.7828C61.7347 67.7828 73.2887 58.1549 73.2887 46.2781C73.2887 34.4014 61.7347 24.7734 47.4822 24.7734C33.2297 24.7734 21.6758 34.4014 21.6758 46.2781C21.6758 51.9424 24.1577 56.9025 28.3671 60.6299C31.3448 63.2667 32.8938 67.5524 31.0058 71.0531C31.0058 71.0531 34.2812 71.945 36.5641 69.6657C38.5869 67.6461 41.2129 67.1858 44.052 67.5178C45.3609 67.6709 46.6336 67.7828 47.4822 67.7828Z" fill="url(#paint2_radial_449_3395)" fill-opacity="0.6" style="mix-blend-mode:lighten"/>
</g>
<defs>
<filter id="filter0_i_449_3395" x="21.6758" y="-15.2266" width="57.6133" height="86.4512" filterUnits="userSpaceOnUse" color-interpolation-filters="sRGB">
<feFlood flood-opacity="0" result="BackgroundImageFix"/>
<feBlend mode="normal" in="SourceGraphic" in2="BackgroundImageFix" result="shape"/>
<feColorMatrix in="SourceAlpha" type="matrix" values="0 0 0 0 0 0 0 0 0 0 0 0 0 0 0 0 0 0 127 0" result="hardAlpha"/>
<feOffset dx="6" dy="-40"/>
<feGaussianBlur stdDeviation="27.5"/>
<feComposite in2="hardAlpha" operator="arithmetic" k2="-1" k3="1"/>
<feColorMatrix type="matrix" values="0 0 0 0 0.729167 0 0 0 0 0.729167 0 0 0 0 0.729167 0 0 0 1 0"/>
<feBlend mode="normal" in2="shape" result="effect1_innerShadow_449_3395"/>
</filter>
<linearGradient id="paint0_linear_449_3395" x1="48" y1="0" x2="48" y2="96" gradientUnits="userSpaceOnUse">
<stop stop-color="#F3494C"/>
<stop offset="1" stop-color="#F3494C"/>
</linearGradient>
<linearGradient id="paint1_linear_449_3395" x1="47.4822" y1="24.7734" x2="47.4822" y2="71.2251" gradientUnits="userSpaceOnUse">
<stop stop-color="#FDFEFD"/>
<stop offset="0.307066" stop-color="white"/>
<stop offset="1" stop-color="white"/>
</linearGradient>
<radialGradient id="paint2_radial_449_3395" cx="0" cy="0" r="1" gradientTransform="matrix(-15.8809 19.4236 -21.5818 -17.5902 53.0405 40.9267)" gradientUnits="userSpaceOnUse">
<stop stop-color="#FEFFFE"/>
<stop offset="0.755208" stop-color="white"/>
</radialGradient>
</defs>
</svg>
