<svg width="40" height="34" viewBox="0 0 40 34" fill="none" xmlns="http://www.w3.org/2000/svg">
<path d="M18.5934 1.1875L38.0081 17.2386C38.5388 17.7291 38.8321 18.364 38.8321 19.0221C38.8321 19.6801 38.5388 20.3151 38.0081 20.8055L25.065 31.5063C24.4718 31.945 23.7038 32.1875 22.9078 32.1875C22.1119 32.1875 21.3439 31.945 20.7506 31.5063L1.33594 15.4552V8.32133C1.33594 6.42932 2.24504 4.6148 3.86324 3.27695C5.48145 1.9391 7.6762 1.1875 9.96469 1.1875H18.5934Z" stroke="#222222" stroke-width="2" stroke-linecap="round" stroke-linejoin="round"/>
<path d="M14.2792 15.4563C16.6619 15.4563 18.5935 13.8593 18.5935 11.8893C18.5935 9.91928 16.6619 8.32227 14.2792 8.32227C11.8964 8.32227 9.96484 9.91928 9.96484 11.8893C9.96484 13.8593 11.8964 15.4563 14.2792 15.4563Z" stroke="#222222" stroke-width="2" stroke-linecap="round" stroke-linejoin="round"/>
</svg>
