<svg width="40" height="34" viewBox="0 0 40 34" fill="none" xmlns="http://www.w3.org/2000/svg">
<path d="M5.84667 32.2382C8.43927 32.2382 10.541 30.6935 10.541 28.7881C10.541 26.8826 8.43927 25.3379 5.84667 25.3379C3.25406 25.3379 1.15234 26.8826 1.15234 28.7881C1.15234 30.6935 3.25406 32.2382 5.84667 32.2382Z" stroke="#222222" stroke-width="2" stroke-linecap="round" stroke-linejoin="round"/>
<path d="M31.667 32.2382C34.2596 32.2382 36.3613 30.6935 36.3613 28.7881C36.3613 26.8826 34.2596 25.3379 31.667 25.3379C29.0744 25.3379 26.9727 26.8826 26.9727 28.7881C26.9727 30.6935 29.0744 32.2382 31.667 32.2382Z" stroke="#222222" stroke-width="2" stroke-linecap="round" stroke-linejoin="round"/>
<path d="M31.6654 25.3372H5.84667V1.1875H1.15234" stroke="#222222" stroke-width="2" stroke-linecap="round" stroke-linejoin="round"/>
<path d="M5.84766 4.63672L38.7079 6.36162L36.3608 18.4359H5.84766" stroke="#222222" stroke-width="2" stroke-linecap="round" stroke-linejoin="round"/>
</svg>
