<svg width="96" height="96" viewBox="0 0 96 96" fill="none" xmlns="http://www.w3.org/2000/svg">
<rect width="96" height="96" rx="48" fill="#25D366"/>
<path fill-rule="evenodd" clip-rule="evenodd" d="M70.3041 24.776C64.695 19.1578 57.2221 16.0637 49.2697 16.0547C32.8855 16.0547 19.5411 29.39 19.5411 45.7833C19.5411 51.0215 20.9072 56.1421 23.5128 60.6476L19.2969 76.0547L35.0568 71.9202C39.3994 74.2905 44.2848 75.539 49.2607 75.539H49.2697C65.6539 75.539 78.9893 62.2037 78.9983 45.8104C79.0074 37.8671 75.9223 30.3943 70.3041 24.776ZM49.2788 70.5179H49.2697C44.8367 70.5179 40.4851 69.3237 36.6943 67.071L35.7896 66.5372L26.435 68.9889L28.932 59.8695L28.3439 58.9377C25.8741 55.0022 24.5623 50.4606 24.5623 45.7833C24.5713 32.1584 35.6539 21.0758 49.2878 21.0758C55.8922 21.0758 62.0894 23.6542 66.7577 28.3225C71.4259 32.9908 73.9953 39.2061 73.9863 45.8014C73.9863 59.4353 62.8946 70.5179 49.2788 70.5179ZM62.8313 52.0076C62.0894 51.6367 58.4344 49.8364 57.7559 49.5921C57.0773 49.3478 56.5797 49.2212 56.0822 49.963C55.5846 50.7049 54.1642 52.3786 53.7299 52.8762C53.2957 53.3737 52.8614 53.4371 52.1196 53.0662C51.3777 52.6952 48.9802 51.9081 46.1485 49.375C43.941 47.4027 42.4483 44.969 42.014 44.2272C41.5797 43.4853 41.9688 43.0782 42.3397 42.7073C42.6744 42.3725 43.0816 41.8388 43.4525 41.4045C43.8234 40.9702 43.9501 40.6626 44.1943 40.1651C44.4386 39.6675 44.321 39.2332 44.131 38.8623C43.941 38.4914 42.4573 34.8364 41.8421 33.3436C41.236 31.8961 40.6298 32.0951 40.1684 32.068C39.7341 32.0499 39.2366 32.0408 38.748 32.0408C38.2504 32.0408 37.4452 32.2308 36.7667 32.9727C36.0882 33.7145 34.1702 35.5149 34.1702 39.1699C34.1702 42.8249 36.83 46.3623 37.201 46.8508C37.5719 47.3484 42.4392 54.8484 49.894 58.0692C51.6672 58.8382 53.0514 59.2905 54.128 59.6343C55.9103 60.2043 57.5297 60.1228 58.8053 59.9329C60.2348 59.7157 63.2022 58.1325 63.8174 56.4045C64.4326 54.6675 64.4326 53.1838 64.2516 52.8762C64.0707 52.5686 63.5731 52.3876 62.8313 52.0076Z" fill="white"/>
</svg>
