<svg width="43" height="35" viewBox="0 0 43 35" fill="none" xmlns="http://www.w3.org/2000/svg">
<path d="M21.5461 33.8575C32.4597 33.8575 41.307 26.5441 41.307 17.5225C41.307 8.50093 32.4597 1.1875 21.5461 1.1875C10.6324 1.1875 1.78516 8.50093 1.78516 17.5225C1.78516 26.5441 10.6324 33.8575 21.5461 33.8575Z" stroke="#222222" stroke-width="2" stroke-linecap="round" stroke-linejoin="round"/>
<path d="M27.6958 12.0769C27.298 11.5065 26.7201 11.0363 26.024 10.7166C25.3278 10.3969 24.5395 10.2397 23.7436 10.2618H19.3523C18.1876 10.2618 17.0707 10.6443 16.2471 11.3251C15.4236 12.0058 14.9609 12.9292 14.9609 13.8919C14.9609 14.8547 15.4236 15.7781 16.2471 16.4588C17.0707 17.1396 18.1876 17.5221 19.3523 17.5221H23.7436C24.9082 17.5221 26.0252 17.9045 26.8487 18.5853C27.6723 19.2661 28.1349 20.1894 28.1349 21.1522C28.1349 22.115 27.6723 23.0383 26.8487 23.7191C26.0252 24.3999 24.9082 24.7823 23.7436 24.7823H19.3523C18.5563 24.8045 17.7681 24.6473 17.0719 24.3276C16.3757 24.0078 15.7978 23.5376 15.4001 22.9673" stroke="#222222" stroke-width="2" stroke-linecap="round" stroke-linejoin="round"/>
<path d="M21.5469 6.63086V10.2609M21.5469 24.7811V28.4111" stroke="#222222" stroke-width="2" stroke-linecap="round" stroke-linejoin="round"/>
</svg>
