<svg width="45" height="38" viewBox="0 0 45 38" fill="none" xmlns="http://www.w3.org/2000/svg">
<path d="M15.3359 18.9762L20.0415 22.8607L29.4527 15.0918" stroke="#222222" stroke-width="2" stroke-linecap="round" stroke-linejoin="round"/>
<path d="M22.3948 1.49609C27.8905 5.50984 35.0633 7.59966 42.3935 7.32276C43.4607 10.3196 43.7872 13.463 43.3537 16.5661C42.9202 19.6693 41.7354 22.6688 39.8699 25.3865C38.0043 28.1041 35.496 30.4845 32.494 32.3861C29.492 34.2878 26.0576 35.6718 22.3948 36.4561C18.732 35.6718 15.2976 34.2878 12.2956 32.3861C9.29358 30.4845 6.78527 28.1041 4.91972 25.3865C3.05416 22.6688 1.86942 19.6693 1.4359 16.5661C1.00238 13.463 1.32893 10.3196 2.39613 7.32276C9.7263 7.59966 16.8991 5.50984 22.3948 1.49609" stroke="#222222" stroke-width="2" stroke-linecap="round" stroke-linejoin="round"/>
</svg>
